<svg width="24" height="30" viewBox="0 0 24 30"  xmlns="http://www.w3.org/2000/svg">
<path d="M4.00994 2.51291C3.98201 2.61237 3.94479 2.67528 4.00621 2.54336C4.02111 2.51291 4.08439 2.42564 4.08439 2.39925C4.08439 2.44594 3.92245 2.59004 4.03414 2.4845C4.07137 2.45 4.2147 2.30386 4.05275 2.45608C3.85358 2.64281 4.08812 2.43985 4.08626 2.44391C4.07695 2.47232 3.78656 2.60019 3.95409 2.52712C4.0118 2.50074 4.20539 2.41955 3.95782 2.51494C3.71024 2.61034 3.8815 2.54539 3.93734 2.52915C4.19794 2.45405 3.79215 2.54945 3.79215 2.55351C3.79587 2.5393 3.93548 2.5393 3.94851 2.53727C4.0937 2.51697 3.63765 2.52306 3.77912 2.53727C3.82565 2.54133 3.87405 2.54133 3.92245 2.54539C3.97085 2.54945 4.01552 2.5596 4.06206 2.56365C4.19236 2.57177 3.79773 2.49059 3.92059 2.53727C4.00621 2.56974 4.09929 2.59004 4.18677 2.62251C4.224 2.63672 4.35431 2.69558 4.18677 2.61846C4.0118 2.5393 4.17002 2.61439 4.20911 2.63469C4.28357 2.67528 4.35431 2.72197 4.42504 2.77068C4.49578 2.81939 4.56093 2.87622 4.6298 2.93102C4.78244 3.05482 4.51811 2.80721 4.59257 2.89651C4.62422 2.93508 4.66331 2.96755 4.69495 3.00408C4.95928 3.29026 5.17148 3.62718 5.34459 3.98643L5.23849 3.76317C5.51585 4.35785 5.67407 5.00327 5.70386 5.67102L5.69455 5.42138C5.70572 5.78874 5.67407 6.15002 5.6052 6.51129C5.56611 6.72034 5.51771 6.92736 5.46373 7.13236C5.43581 7.2379 5.40602 7.34141 5.37438 7.44492C5.35949 7.49769 5.34273 7.54843 5.32598 7.6012C5.26828 7.78996 5.36135 7.50378 5.3204 7.62353C5.02443 8.46583 4.66889 9.27768 4.2966 10.0834C3.98574 10.7573 3.67115 11.4291 3.41241 12.1293C3.11086 12.9513 2.83722 13.7875 2.58779 14.6319C1.59564 17.9909 0.918069 21.5448 0.843611 25.0804C0.811966 26.5701 0.694696 28.8068 2.21736 29.5131C3.42544 30.0733 4.81967 29.3629 5.59031 28.3136C5.85836 27.9483 6.08918 27.5606 6.29952 27.1526C6.81514 26.146 7.247 25.0885 7.67699 24.0372C8.17958 22.8092 8.66356 21.5732 9.16615 20.3432C9.59429 19.2959 10.0243 18.2405 10.5362 17.2379C10.633 17.0491 10.7316 16.8624 10.8377 16.6818C10.8787 16.6107 10.9234 16.5417 10.9662 16.4727C11.0741 16.3002 10.9308 16.562 10.8824 16.5904C10.9085 16.5762 10.9345 16.5174 10.955 16.491C11.0704 16.3347 11.1933 16.1845 11.3236 16.0424C11.3813 15.9775 11.452 15.9186 11.5079 15.8517C11.3329 16.0688 11.3589 15.9816 11.4353 15.9227C11.4427 15.9166 11.6046 15.7867 11.6084 15.7928C11.6102 15.7948 11.2956 15.9755 11.4892 15.872C11.5823 15.8212 11.7238 15.807 11.3273 15.9308C11.3794 15.9146 11.506 15.8882 11.2733 15.9369C10.9141 16.01 11.4446 15.9491 11.1188 15.9572C10.7931 15.9653 11.3459 16.0181 10.9457 15.941C10.6981 15.8943 10.7819 15.9044 10.8321 15.9207C10.955 15.9613 10.525 15.7603 10.659 15.8395C10.7614 15.9024 10.6497 15.9268 10.538 15.7197C10.5492 15.74 10.5734 15.7542 10.5864 15.7745C10.6162 15.8212 10.646 15.8638 10.6702 15.9125L10.5641 15.6893C10.7447 16.0729 10.767 16.5417 10.7856 16.9639L10.7763 16.7143C10.8377 18.2872 10.6423 19.8602 10.6088 21.4331C10.5957 22.0765 10.5604 22.7869 10.7316 23.41C11.076 24.6603 12.4367 24.573 13.347 24.1366C14.0785 23.7875 14.6891 23.1462 15.2512 22.5413C15.8134 21.9365 16.3011 21.3601 16.8055 20.7492C18.1774 19.0828 19.4693 17.3373 20.6811 15.531C21.7812 13.891 22.8701 12.1658 23.5942 10.2844C23.691 10.0327 23.7767 9.77697 23.8604 9.52123C23.9442 9.2655 23.7227 8.98947 23.5552 8.87581C23.3094 8.70735 22.9278 8.66473 22.6486 8.70329C21.999 8.79057 21.3717 9.11125 21.1427 9.80944C21.2656 9.43599 21.1222 9.86018 21.0869 9.95558C21.0385 10.0875 20.9864 10.2174 20.9342 10.3453C20.8244 10.6132 20.7053 10.877 20.5806 11.1389C20.3088 11.7092 20.011 12.2633 19.7001 12.8072C19.3539 13.41 18.9909 14.0006 18.6149 14.5831C18.4213 14.8835 18.224 15.1819 18.0229 15.4782C17.9745 15.5513 17.9243 15.6223 17.8759 15.6954C17.8498 15.7339 17.6972 15.9552 17.8107 15.7908C17.9243 15.6264 17.7493 15.8801 17.727 15.9125C17.6711 15.9937 17.6153 16.0729 17.5576 16.1541C16.1596 18.1391 14.6723 20.0855 13.0361 21.8452C12.8946 21.9974 12.7494 22.1496 12.6024 22.2957C12.5428 22.3546 12.4833 22.4114 12.4237 22.4703C12.2617 22.6266 12.6787 22.243 12.5633 22.3424C12.5354 22.3668 12.5093 22.3911 12.4814 22.4155C12.4218 22.4662 12.3604 22.517 12.299 22.5657C12.258 22.5982 12.2133 22.6266 12.1724 22.6611C12.0533 22.7605 12.4535 22.5474 12.2413 22.6205C12.2562 22.6164 12.6005 22.517 12.3809 22.5657C12.554 22.5271 12.6433 22.5129 12.7978 22.5109C13.0696 22.5089 12.9914 22.5109 12.9319 22.5089C12.8165 22.5007 13.3097 22.5982 13.1887 22.5596C13.0473 22.5129 13.4866 22.7341 13.3656 22.6408C13.2762 22.5738 13.5238 22.8437 13.4903 22.7585C13.4717 22.7118 13.4214 22.6651 13.3972 22.6164L13.5033 22.8397C13.3488 22.5089 13.3339 22.1009 13.319 21.7356L13.3284 21.9852C13.2706 20.4163 13.4717 18.8474 13.4996 17.2805C13.5108 16.5965 13.5368 15.8517 13.36 15.1859C13.2948 14.9363 13.1887 14.6684 13.0156 14.4877C12.4609 13.9073 11.5842 13.9479 10.8899 14.1569C8.88879 14.7577 7.94318 16.9943 7.14276 18.8697C6.33489 20.7613 5.60706 22.6915 4.81222 24.5892C4.47902 25.3828 4.14024 26.1784 3.74933 26.9416C3.60972 27.2156 3.45709 27.4754 3.29514 27.7331C3.42917 27.518 3.44964 27.518 3.34168 27.6601C3.2393 27.796 3.12761 27.9178 3.01778 28.0457C2.92657 28.1492 3.12203 27.9483 3.11644 27.9544C3.07921 27.9848 2.9638 28.0558 3.14436 27.9442C3.2393 27.8853 3.34354 27.8387 3.44964 27.8082C3.41241 27.8184 3.79959 27.7534 3.66371 27.7656C3.52782 27.7778 3.915 27.7656 3.87591 27.7656C3.83124 27.7656 3.72327 27.7412 3.92989 27.7798C4.13651 27.8184 4.03414 27.8001 3.9876 27.7839C4.00994 27.792 4.22028 27.9219 4.10859 27.8366C4.07881 27.8143 3.9057 27.6783 4.03972 27.796C4.1663 27.9056 4.03227 27.7757 4.00435 27.7412C3.92617 27.6398 3.86102 27.5281 3.80146 27.4124L3.90756 27.6357C3.65812 27.1121 3.58739 26.5478 3.56133 25.9653L3.57063 26.215C3.48687 24.1204 3.69535 22.0136 4.02855 19.9515C4.37478 17.8123 4.86993 15.6974 5.51771 13.6434C5.5568 13.5216 5.59589 13.4019 5.63498 13.2801C5.69269 13.1035 5.63126 13.2882 5.62195 13.3187C5.64429 13.2476 5.66849 13.1766 5.69269 13.1076C5.77087 12.8782 5.85091 12.6489 5.93468 12.4195C6.08731 12.0014 6.25484 11.5935 6.43727 11.1896C6.86168 10.2499 7.31401 9.32233 7.68258 8.3542C8.05114 7.38606 8.43088 6.28803 8.40854 5.20421C8.38807 4.19954 8.14422 3.272 7.64535 2.41955C7.06271 1.42503 6.13013 0.808023 5.0691 0.637534C3.606 0.402096 1.752 1.16524 1.28664 2.80721C1.2159 3.05889 1.41508 3.33289 1.59191 3.45263C1.83763 3.62109 2.21922 3.66372 2.49844 3.62515C3.12389 3.54194 3.80518 3.22126 4.00435 2.519L4.00994 2.51291Z" />
</svg>
